<?xml version="1.0" encoding="UTF-8" standalone="no"?><!DOCTYPE svg PUBLIC "-//W3C//DTD SVG 1.1//EN" "http://www.w3.org/Graphics/SVG/1.1/DTD/svg11.dtd"><svg width="32px" height="32px" version="1.1" xmlns="http://www.w3.org/2000/svg" xmlns:xlink="http://www.w3.org/1999/xlink" xml:space="preserve" xmlns:serif="http://www.serif.com/" style="fill-rule:evenodd;clip-rule:evenodd;stroke-linejoin:round;stroke-miterlimit:2;"><path d="M0.653,0.691C0.869,0.453 1.244,0.435 1.482,0.651L12.414,10.589C12.537,10.7 12.607,10.859 12.607,11.024C12.607,11.33 12.368,11.587 12.064,11.61L7.822,11.935L10.263,17.171C10.299,17.249 10.318,17.334 10.318,17.42C10.318,17.648 10.185,17.856 9.979,17.952L7.85,18.945C7.772,18.981 7.687,19 7.601,19C7.373,19 7.165,18.867 7.069,18.66L4.571,13.306L1.503,16.376C1.416,16.463 1.302,16.521 1.18,16.54L1.087,16.548C0.765,16.548 0.5,16.283 0.5,15.961L0.5,1.086C0.5,0.94 0.555,0.799 0.653,0.691Z" style="fill:rgb(19,19,19);fill-rule:nonzero;stroke:white;stroke-width:0.5px;"/><path d="M19.775,1.912C20.83,0.876 22.61,1.624 22.61,3.101L22.61,14.755C22.61,16.232 20.83,16.979 19.775,15.944L16.956,13.175L16,13.175C14.629,13.175 13.5,12.047 13.5,10.675L13.5,7.18C13.5,5.809 14.629,4.68 16,4.68L16.956,4.68L19.775,1.912ZM23.652,2.642C23.683,2.186 24.083,1.836 24.539,1.867C28.166,2.112 31,5.2 31,8.934C31,12.67 28.166,15.757 24.539,16.002C24.526,16.003 24.513,16.003 24.5,16.003C24.043,16.003 23.667,15.627 23.667,15.17C23.667,14.74 23.999,14.378 24.427,14.34C27.148,14.156 29.333,11.823 29.333,8.935C29.333,6.045 27.148,3.714 24.427,3.53C23.971,3.499 23.621,3.098 23.652,2.642ZM20.943,3.101L17.881,6.108C17.725,6.261 17.516,6.347 17.298,6.347L16,6.347C15.543,6.347 15.167,6.723 15.167,7.18L15.167,10.675C15.167,11.133 15.543,11.509 16,11.509L17.297,11.509C17.515,11.509 17.724,11.594 17.88,11.747L20.943,14.755L20.943,3.101ZM23.658,5.926C23.718,5.519 24.071,5.214 24.483,5.214C24.523,5.214 24.564,5.217 24.604,5.223C26.4,5.486 27.752,7.062 27.752,8.935C27.752,10.807 26.4,12.382 24.604,12.646C24.564,12.652 24.524,12.655 24.483,12.655C24.026,12.655 23.65,12.279 23.65,11.822C23.65,11.41 23.955,11.057 24.362,10.997C25.32,10.856 26.086,10 26.086,8.935C26.086,7.868 25.319,7.013 24.362,6.872C23.954,6.812 23.649,6.459 23.649,6.048C23.649,6.007 23.652,5.966 23.658,5.926Z" style="fill-rule:nonzero;stroke:white;stroke-width:0.5px;"/></svg>